<?xml version="1.0" encoding="UTF-8"?><svg id="uuid-4974192a-6dac-4507-a7bc-04a512e86953"
    xmlns="http://www.w3.org/2000/svg" viewBox="0 0 208.97 182.49">
    <defs>
        <style>
            .uuid-38419cf4-fdae-43bb-aff0-2b794743891e {
                fill: #0C3148;
            }
        </style>
    </defs>
    <g id="uuid-8ae94ae2-4bce-449a-928b-8aa3ebe92851">
        <path class="uuid-38419cf4-fdae-43bb-aff0-2b794743891e"
            d="m168.11,14.65l24.98,43.27c1.16,2.01,1.16,4.49,0,6.5l-24.98,43.27c-1.16,2.01-3.31,3.25-5.63,3.25h-49.96c-2.32,0-4.47-1.24-5.63-3.25l-15.6-27.02c-1.16-2.01-3.31-3.25-5.64-3.25h0c-5,0-8.11,5.42-5.61,9.75l19.35,33.52c1.16,2.01,3.31,3.25,5.63,3.25h64.97c2.32,0,4.47-1.24,5.63-3.25l32.48-56.26c1.16-2.01,1.16-4.49,0-6.5l-29.54-51.16-10.45,7.89Z" />
        <path class="uuid-38419cf4-fdae-43bb-aff0-2b794743891e"
            d="m169.79,48.12c-3.33,0-6.03-2.7-6.03-6.03V6.76c0-3.33,2.7-6.03,6.03-6.03s6.03,2.7,6.03,6.03v35.33c0,3.33-2.7,6.03-6.03,6.03Z" />
        <path class="uuid-38419cf4-fdae-43bb-aff0-2b794743891e"
            d="m202.01,27.26c-.83,0-1.67-.17-2.47-.53l-32.23-14.47c-3.04-1.37-4.4-4.94-3.03-7.98,1.37-3.04,4.94-4.4,7.98-3.03l32.23,14.47c3.04,1.37,4.4,4.94,3.03,7.98-1,2.24-3.2,3.56-5.51,3.56Z" />
        <path class="uuid-38419cf4-fdae-43bb-aff0-2b794743891e"
            d="m79.16,54.68c-1.12,0-2.26-.34-3.26-1.05-2.43-1.74-2.98-5.12-1.4-7.65L101.58,2.63C102.61,1,104.4,0,106.33,0h49.26c3.02,0,5.61,2.32,5.76,5.33.15,3.22-2.41,5.87-5.6,5.87h-43.21c-1.93,0-3.73,1-4.75,2.63l-23.88,38.2c-1.06,1.7-2.89,2.63-4.76,2.63Z" />
        <path class="uuid-38419cf4-fdae-43bb-aff0-2b794743891e"
            d="m40.86,167.84l-24.98-43.27c-1.16-2.01-1.16-4.49,0-6.5l24.98-43.27c1.16-2.01,3.31-3.25,5.63-3.25h49.96c2.32,0,4.47,1.24,5.63,3.25l15.6,27.02c1.16,2.01,3.31,3.25,5.64,3.25h0c5,0,8.11-5.42,5.61-9.75l-19.35-33.52c-1.16-2.01-3.31-3.25-5.63-3.25H38.98c-2.32,0-4.47,1.24-5.63,3.25L.87,118.08c-1.16,2.01-1.16,4.49,0,6.5l29.54,51.16,10.45-7.89Z" />
        <path class="uuid-38419cf4-fdae-43bb-aff0-2b794743891e"
            d="m39.19,134.37c3.33,0,6.03,2.7,6.03,6.03v35.33c0,3.33-2.7,6.03-6.03,6.03s-6.03-2.7-6.03-6.03v-35.33c0-3.33,2.7-6.03,6.03-6.03Z" />
        <path class="uuid-38419cf4-fdae-43bb-aff0-2b794743891e"
            d="m6.96,155.23c.83,0,1.67.17,2.47.53l32.23,14.47c3.04,1.37,4.4,4.94,3.03,7.98-1.37,3.04-4.94,4.4-7.98,3.03l-32.23-14.47c-3.04-1.37-4.4-4.94-3.03-7.98,1-2.24,3.2-3.56,5.51-3.56Z" />
        <path class="uuid-38419cf4-fdae-43bb-aff0-2b794743891e"
            d="m129.82,127.82c1.12,0,2.26.34,3.26,1.05,2.43,1.74,2.98,5.12,1.4,7.65l-27.09,43.34c-1.02,1.64-2.82,2.63-4.75,2.63h-49.26c-3.02,0-5.61-2.32-5.76-5.33-.15-3.22,2.41-5.87,5.6-5.87h43.21c1.93,0,3.73-1,4.75-2.63l23.88-38.2c1.06-1.7,2.89-2.63,4.76-2.63Z" />
    </g>
</svg>